<?xml version="1.0" encoding="UTF-8" standalone="no"?>
<!-- Created with Inkscape (http://www.inkscape.org/) -->

<svg
   version="1.1"
   id="svg203"
   width="1920"
   height="1152"
   viewBox="0 0 1920 1152"
   sodipodi:docname="logo-H_F.svg"
   inkscape:export-filename="/home/hugo/MyProjects/WebPage-MyPortifolio/logo_50px.png"
   inkscape:export-xdpi="6.7415819"
   inkscape:export-ydpi="6.7415819"
   inkscape:version="1.1.2 (08b2f3d93c, 2022-04-05)"
   xmlns:inkscape="http://www.inkscape.org/namespaces/inkscape"
   xmlns:sodipodi="http://sodipodi.sourceforge.net/DTD/sodipodi-0.dtd"
   xmlns="http://www.w3.org/2000/svg"
   xmlns:svg="http://www.w3.org/2000/svg">
  <defs
     id="defs207" />
  <sodipodi:namedview
     id="namedview205"
     pagecolor="#ffffff"
     bordercolor="#666666"
     borderopacity="1.0"
     inkscape:pageshadow="2"
     inkscape:pageopacity="0.0"
     inkscape:pagecheckerboard="0"
     showgrid="false"
     inkscape:zoom="0.640625"
     inkscape:cx="960"
     inkscape:cy="575.21951"
     inkscape:window-width="1866"
     inkscape:window-height="1016"
     inkscape:window-x="54"
     inkscape:window-y="627"
     inkscape:window-maximized="1"
     inkscape:current-layer="g209" />
  <g
     inkscape:groupmode="layer"
     inkscape:label="Image"
     id="g209">
    <path
       style="fill:#800000"
       d="m 995.81255,941.51996 c -13.75,-7.99456 -35.575,-20.62337 -48.5,-28.06404 -12.925,-7.44066 -27.1,-15.66703 -31.5,-18.28083 -4.4,-2.6138 -10.25,-5.98898 -13,-7.50041 -2.75,-1.51143 -13.325,-7.58843 -23.5,-13.50446 -17.8702,-10.39028 -92.7269,-53.59772 -139,-80.23117 -12.375,-7.1227 -26.6625,-15.3884 -31.75,-18.36823 l -9.25,-5.41788 0.02,-205.71728 0.02,-205.71729 17.2298,-9.92579 c 9.4764,-5.45918 27.3548,-15.75896 39.7298,-22.8884 12.375,-7.12945 38.475,-22.18845 58,-33.46446 19.525,-11.27601 42.925,-24.77469 52,-29.99707 9.075,-5.22238 26.625,-15.36126 39,-22.53086 49.5681,-28.71783 64.6974,-37.45757 69,-39.85939 2.475,-1.38159 21.7169,-12.48371 42.75975,-24.67138 l 38.2598,-22.15939 41.7402,24.10597 c 72.2828,41.74504 88.2666,50.98435 106.2402,61.41129 9.625,5.58371 34.15,19.75045 54.5,31.48165 20.35,11.73119 48.025,27.69961 61.5,35.48538 13.475,7.78576 39.6779,22.89865 58.2287,33.58419 l 33.7288,19.42826 0.021,205.71729 0.021,205.71728 -9.25,5.41788 c -5.0875,2.97983 -19.375,11.24553 -31.75,18.36823 -31.9129,18.36812 -116.3637,67.09126 -143,82.50258 -12.375,7.15996 -24.075,13.91887 -26,15.01981 -1.925,1.10094 -9.35,5.39342 -16.5,9.53886 -53.9635,31.28728 -95.8257,55.21807 -96.5928,55.21807 -0.5483,0 -0.909,-126.56961 -0.9035,-317 0.01,-326.93436 -0.074,-319.5342 3.5468,-316.09851 0.5225,0.49583 15.575,9.32464 33.45,19.6196 59.2304,34.11321 88.1934,50.82617 140,80.7861 l 16.5,9.54201 0.2622,37.0754 c 0.1442,20.39147 0.04,37.0754 -0.2324,37.0754 -0.272,0 -7.14,-3.89488 -15.2622,-8.65529 -8.1222,-4.76041 -16.3426,-9.54015 -18.2676,-10.62165 -1.925,-1.0815 -10.925,-6.25836 -20,-11.50413 -17.5424,-10.14035 -25.7026,-14.84558 -52,-29.98352 -9.075,-5.22398 -17.9625,-10.37573 -19.75,-11.44834 l -3.25,-1.95019 v 50.08156 50.08156 h 32.5 32.5 v 32 32 h -32.5 -32.5 v 124.03518 124.03519 l 2.25,-1.19482 c 1.2375,-0.65715 16.65,-9.51357 34.25,-19.68092 34.1091,-19.70453 51.5862,-29.79518 87.5,-50.51955 12.375,-7.14109 29.25,-16.88092 37.5,-21.64407 8.25,-4.76315 18.825,-10.85646 23.5,-13.54069 4.675,-2.68423 8.8334,-5.35515 9.2409,-5.93537 0.4075,-0.58022 0.735,-76.53859 0.7279,-168.79638 l -0.013,-167.74143 -2.2279,-1.38951 c -1.2253,-0.76422 -22.7029,-13.18586 -47.7279,-27.60364 -25.025,-14.41778 -54.275,-31.29342 -65,-37.50143 -10.725,-6.20801 -31.425,-18.1593 -46,-26.55843 -14.575,-8.39913 -39.1,-22.55215 -54.5,-31.45116 -67.5757,-39.04917 -75.424,-43.51297 -76.505,-43.51297 -0.6285,0 -8.422,4.21886 -17.3188,9.37525 -8.8969,5.15639 -22.0262,12.73001 -29.1762,16.83028 -22.20905,12.73611 -81.80965,47.20394 -102.33335,59.18073 -6.2334,3.63756 -11.5298,6.61374 -11.7699,6.61374 -0.24,0 -2.1771,1.09888 -4.3047,2.44195 -2.1276,1.34307 -17.5311,10.29809 -34.2301,19.90004 -16.699,9.60195 -44.3119,25.52072 -61.3619,35.37504 l -31,17.91694 -0.2528,168.53641 -0.2529,168.53642 8.7529,5.02253 c 4.814,2.7624 15.7278,9.05891 24.2528,13.99224 8.525,4.93334 25.625,14.81242 38,21.95351 12.375,7.1411 29.925,17.27303 39,22.5154 45.1779,26.09801 81.1597,46.82459 82.9755,47.79639 l 2.0245,1.0835 V 721.25355 597.21837 h -32.5 -32.5 v 67.5 c 0,37.125 -0.2197,67.5 -0.4883,67.5 -0.2685,0 -5.0354,-2.7 -10.593,-6 -5.5576,-3.3 -10.2503,-6 -10.4283,-6 -0.2998,0 -6.5249,-3.59959 -33.2441,-19.22315 l -10.2537,-5.99566 0.2537,-130.64059 0.2537,-130.6406 31.5,-18.24067 c 17.325,-10.03237 31.8375,-18.24487 32.25,-18.25 0.4125,-0.005 0.75,30.59067 0.75,67.99067 v 68 h 32.5 32.5 l 0.016,-87.25 0.016,-87.25 19.1532,-11 c 10.5342,-6.05 24.77355,-14.2625 31.64315,-18.25 6.8695,-3.9875 12.6434,-7.25 12.8308,-7.25 0.1873,0 0.3406,142.65 0.3406,317 0,174.35 -0.3375,316.96336 -0.75,316.91857 -0.4125,-0.0448 -12,-6.62242 -25.74995,-14.61698 z"
       id="path311"
       inkscape:export-filename="/home/hugo/MyProjects/WebPage-MyPortifolio/logo.png"
       inkscape:export-xdpi="96"
       inkscape:export-ydpi="96" />
  </g>
</svg>
